<svg width="20" height="20" viewBox="0 0 20 20" fill="none" xmlns="http://www.w3.org/2000/svg">
<path fill-rule="evenodd" clip-rule="evenodd" d="M9.97403 8.45888e-06C7.99705 0.00514389 6.06596 0.596159 4.42475 1.69838C2.78354 2.8006 1.50586 4.36455 0.753156 6.19264C0.00045284 8.02072 -0.193499 10.0309 0.195808 11.9692C0.585115 13.9074 1.54021 15.6868 2.94041 17.0825C4.34062 18.4782 6.12309 19.4275 8.06261 19.8105C10.0021 20.1935 12.0117 19.9931 13.8373 19.2344C15.6629 18.4758 17.2227 17.1931 18.3196 15.5483C19.4165 13.9035 20.0013 11.9705 20 9.99351C19.9948 7.33903 18.9358 4.79522 17.0558 2.92126C15.1757 1.0473 12.6285 -0.00343948 9.97403 8.45888e-06ZM9.97403 18.9546C8.20367 18.9503 6.47429 18.4214 5.00431 17.4349C3.53433 16.4483 2.38969 15.0482 1.71497 13.4115C1.04025 11.7747 0.865707 9.97472 1.21339 8.23884C1.56108 6.50295 2.4154 4.90904 3.66844 3.65841C4.92148 2.40778 6.51704 1.55654 8.2536 1.21221C9.99015 0.867876 11.7898 1.04589 13.4252 1.72377C15.0607 2.40165 16.4585 3.54899 17.4423 5.02087C18.426 6.49275 18.9515 8.22315 18.9524 9.99351C18.9489 12.3717 18.0012 14.6511 16.3176 16.3307C14.6339 18.0103 12.3522 18.9525 9.97403 18.9502V18.9546Z" fill="white"/>
<path d="M14.132 9.3487V8.53268C14.1315 8.04823 14.034 7.56879 13.8452 7.12267C13.6563 6.67655 13.38 6.2728 13.0324 5.93528C12.33 5.24083 11.3817 4.85187 10.3939 4.85303H9.72291C8.73587 4.85244 7.78848 5.24135 7.08655 5.93528C6.73893 6.27261 6.46265 6.67637 6.27413 7.12256C6.08562 7.56876 5.9887 8.0483 5.98914 8.53268V9.3487L5.52594 10.1842V11.3877C5.52676 11.9257 5.63519 12.4581 5.84484 12.9536C6.05449 13.4491 6.36113 13.8977 6.74672 14.2729C7.532 15.043 8.58843 15.4737 9.68828 15.4721H10.435C11.5321 15.4723 12.5853 15.0417 13.3679 14.2729C13.7542 13.8981 14.0614 13.4497 14.2715 12.9541C14.4815 12.4585 14.5901 11.9259 14.5909 11.3877V10.1842L14.132 9.3487ZM10.4956 13.0413V14.0045C10.4962 14.0752 10.4788 14.1448 10.4451 14.2069C10.4114 14.2689 10.3625 14.3215 10.303 14.3595H10.1212C10.0997 14.3628 10.0778 14.3628 10.0562 14.3595H10.013C9.99497 14.3614 9.97683 14.3614 9.95884 14.3595H9.87659C9.81593 14.3206 9.76595 14.2672 9.73117 14.204C9.6964 14.1409 9.67794 14.0701 9.67745 13.998V13.0413C9.42658 12.9439 9.21793 12.7614 9.08802 12.5257C8.9581 12.29 8.91519 12.0162 8.96678 11.752C9.01837 11.4879 9.16117 11.2503 9.37023 11.0808C9.57928 10.9113 9.84126 10.8207 10.1104 10.8249H10.1342C10.4033 10.8207 10.6652 10.9113 10.8743 11.0808C11.0833 11.2503 11.2262 11.4879 11.2777 11.752C11.3293 12.0162 11.2864 12.29 11.1565 12.5257C11.0266 12.7614 10.8179 12.9439 10.5671 13.0413H10.4956ZM12.4632 9.37467H7.65581V8.53268C7.65634 8.265 7.71043 8.00014 7.81488 7.75368C7.91934 7.50722 8.07205 7.28416 8.26403 7.09762C8.65219 6.7126 9.1762 6.49569 9.72291 6.49372H10.3939C10.9407 6.49546 11.4648 6.71241 11.8528 7.09762C12.0444 7.28445 12.1968 7.50758 12.3013 7.75397C12.4057 8.00036 12.46 8.26508 12.461 8.53268L12.4632 9.37467Z" fill="white"/>
</svg>
