<svg width="20" height="20" viewBox="0 0 20 20" fill="none" xmlns="http://www.w3.org/2000/svg">
<path d="M6.45834 2.50005C6.41158 2.49944 6.3649 2.50409 6.31918 2.51389C5.82369 2.55163 5.38235 2.78201 5.06755 3.134C5.03179 3.16447 4.99957 3.19886 4.97152 3.23654L2.46094 6.53814C2.46012 6.53949 2.45931 6.54085 2.4585 6.54221C2.21543 6.8665 2.08334 7.261 2.08334 7.66688V15.2084C2.08334 16.2365 2.93021 17.0834 3.95834 17.0834H6.25V18.5417C6.25002 18.7075 6.31587 18.8664 6.43308 18.9836C6.55029 19.1008 6.70925 19.1667 6.875 19.1667H7.77995C8.16666 19.1667 8.53772 19.0128 8.81104 18.7395L10.4671 17.0834H12.5724C13.1005 17.0834 13.604 16.8598 13.9591 16.4698L17.1045 13.0103H17.1037C17.6266 12.4353 17.9167 11.6855 17.9167 10.9083V4.37505C17.9167 3.34693 17.0698 2.50005 16.0417 2.50005H6.45834ZM6.45834 3.75005H16.0417C16.3944 3.75005 16.6667 4.02234 16.6667 4.37505V10.9083C16.6667 11.3752 16.4929 11.8247 16.1792 12.1696L15.1213 13.3334H10.2083C10.0426 13.3334 9.88364 13.3993 9.76644 13.5165L9.16667 14.1163V13.9584C9.16665 13.7926 9.1008 13.6337 8.98359 13.5165C8.86639 13.3993 8.70742 13.3334 8.54167 13.3334H5.83334V4.37505C5.83334 4.25334 5.86752 4.14258 5.92448 4.0479L5.9668 3.99257C5.97622 3.98016 5.98518 3.9674 5.99365 3.95432C6.1069 3.82875 6.27042 3.75005 6.45834 3.75005ZM4.58334 5.81223V13.5417C4.58334 14.1099 5.05684 14.5834 5.625 14.5834H7.91667V15.6251C7.91672 15.7486 7.9534 15.8694 8.02208 15.9722C8.09076 16.0749 8.18836 16.155 8.30254 16.2023C8.41672 16.2496 8.54236 16.262 8.66358 16.2379C8.78479 16.2138 8.89614 16.1543 8.98356 16.0669L10.4671 14.5834H13.9844L13.0347 15.6283C12.9156 15.7591 12.7485 15.8334 12.5724 15.8334H10.2083C10.0426 15.8334 9.88364 15.8993 9.76644 16.0165L7.92725 17.8557C7.88806 17.8949 7.8349 17.9167 7.77995 17.9167H7.5V16.4584C7.49999 16.2926 7.43413 16.1337 7.31693 16.0165C7.19972 15.8993 7.04076 15.8334 6.875 15.8334H3.95834C3.60563 15.8334 3.33334 15.5611 3.33334 15.2084V7.66688C3.33334 7.53193 3.37757 7.39991 3.45866 7.29172L4.58334 5.81223ZM9.7819 6.2411C9.61629 6.24369 9.45847 6.31191 9.34311 6.43077C9.22775 6.54964 9.16429 6.70943 9.16667 6.87505V10.2084C9.1655 10.2912 9.1808 10.3734 9.21168 10.4503C9.24257 10.5271 9.28842 10.5971 9.34657 10.6561C9.40472 10.7151 9.47402 10.7619 9.55043 10.7939C9.62684 10.8258 9.70884 10.8423 9.79167 10.8423C9.8745 10.8423 9.9565 10.8258 10.0329 10.7939C10.1093 10.7619 10.1786 10.7151 10.2368 10.6561C10.2949 10.5971 10.3408 10.5271 10.3717 10.4503C10.4025 10.3734 10.4178 10.2912 10.4167 10.2084V6.87505C10.4179 6.7914 10.4023 6.70836 10.3708 6.63085C10.3393 6.55334 10.2926 6.48294 10.2334 6.42382C10.1742 6.3647 10.1037 6.31806 10.0262 6.28668C9.94862 6.25529 9.86555 6.23979 9.7819 6.2411ZM13.1152 6.2411C12.9496 6.24369 12.7918 6.31191 12.6764 6.43077C12.5611 6.54964 12.4976 6.70943 12.5 6.87505V10.2084C12.4988 10.2912 12.5141 10.3734 12.545 10.4503C12.5759 10.5271 12.6217 10.5971 12.6799 10.6561C12.7381 10.7151 12.8074 10.7619 12.8838 10.7939C12.9602 10.8258 13.0422 10.8423 13.125 10.8423C13.2078 10.8423 13.2898 10.8258 13.3662 10.7939C13.4427 10.7619 13.5119 10.7151 13.5701 10.6561C13.6283 10.5971 13.6741 10.5271 13.705 10.4503C13.7359 10.3734 13.7512 10.2912 13.75 10.2084V6.87505C13.7512 6.7914 13.7356 6.70836 13.7041 6.63085C13.6726 6.55334 13.6259 6.48294 13.5667 6.42382C13.5075 6.3647 13.437 6.31806 13.3595 6.28668C13.2819 6.25529 13.1989 6.23979 13.1152 6.2411Z" fill="white"/>
</svg>
