<svg width="20" height="20" viewBox="0 0 20 20" fill="none" xmlns="http://www.w3.org/2000/svg">
<path d="M6.87499 2.0835C4.23599 2.0835 2.08333 4.23616 2.08333 6.87516V13.1252C2.08333 15.7638 4.23592 17.9168 6.87499 17.9168H13.125C15.7637 17.9168 17.9167 15.7639 17.9167 13.1252V6.87516C17.9167 4.23608 15.7636 2.0835 13.125 2.0835H6.87499ZM6.87499 3.3335H13.125C15.088 3.3335 16.6667 4.91174 16.6667 6.87516V13.1252C16.6667 15.0881 15.0879 16.6668 13.125 16.6668H6.87499C4.91157 16.6668 3.33333 15.0882 3.33333 13.1252V6.87516C3.33333 4.91167 4.9115 3.3335 6.87499 3.3335ZM14.1667 5.00016C13.7062 5.00016 13.3333 5.37308 13.3333 5.8335C13.3333 6.29391 13.7062 6.66683 14.1667 6.66683C14.6271 6.66683 15 6.29391 15 5.8335C15 5.37308 14.6271 5.00016 14.1667 5.00016ZM9.99999 5.8335C7.70632 5.8335 5.83333 7.70649 5.83333 10.0002C5.83333 12.2938 7.70632 14.1668 9.99999 14.1668C12.2937 14.1668 14.1667 12.2938 14.1667 10.0002C14.1667 7.70649 12.2937 5.8335 9.99999 5.8335ZM9.99999 7.0835C11.618 7.0835 12.9167 8.38217 12.9167 10.0002C12.9167 11.6182 11.618 12.9168 9.99999 12.9168C8.382 12.9168 7.08333 11.6182 7.08333 10.0002C7.08333 8.38217 8.382 7.0835 9.99999 7.0835Z" fill="white"/>
</svg>
