<svg width="20" height="20" viewBox="0 0 20 20" fill="none" xmlns="http://www.w3.org/2000/svg">
<path d="M9.99992 14.1667C9.55789 14.1667 9.13397 14.3423 8.82141 14.6548C8.50885 14.9674 8.33325 15.3913 8.33325 15.8333C8.33325 16.2754 8.50885 16.6993 8.82141 17.0118C9.13397 17.3244 9.55789 17.5 9.99992 17.5C10.4419 17.5 10.8659 17.3244 11.1784 17.0118C11.491 16.6993 11.6666 16.2754 11.6666 15.8333C11.6666 15.3913 11.491 14.9674 11.1784 14.6548C10.8659 14.3423 10.4419 14.1667 9.99992 14.1667ZM9.99992 8.33333C9.55789 8.33333 9.13397 8.50893 8.82141 8.82149C8.50885 9.13405 8.33325 9.55797 8.33325 10C8.33325 10.442 8.50885 10.866 8.82141 11.1785C9.13397 11.4911 9.55789 11.6667 9.99992 11.6667C10.4419 11.6667 10.8659 11.4911 11.1784 11.1785C11.491 10.866 11.6666 10.442 11.6666 10C11.6666 9.55797 11.491 9.13405 11.1784 8.82149C10.8659 8.50893 10.4419 8.33333 9.99992 8.33333ZM9.99992 2.5C9.55789 2.5 9.13397 2.67559 8.82141 2.98816C8.50885 3.30072 8.33325 3.72464 8.33325 4.16667C8.33325 4.60869 8.50885 5.03262 8.82141 5.34518C9.13397 5.65774 9.55789 5.83333 9.99992 5.83333C10.4419 5.83333 10.8659 5.65774 11.1784 5.34518C11.491 5.03262 11.6666 4.60869 11.6666 4.16667C11.6666 3.72464 11.491 3.30072 11.1784 2.98816C10.8659 2.67559 10.4419 2.5 9.99992 2.5Z" fill="white"/>
</svg>
