<svg width="19" height="19" viewBox="0 0 19 19" fill="none" xmlns="http://www.w3.org/2000/svg">
<g clip-path="url(#clip0_85_554)">
<path d="M9.50009 18.9631C14.7263 18.9631 18.9631 14.7263 18.9631 9.50009C18.9631 4.27383 14.7263 0.0371094 9.50009 0.0371094C4.27383 0.0371094 0.0371094 4.27383 0.0371094 9.50009C0.0371094 14.7263 4.27383 18.9631 9.50009 18.9631Z" fill="white" stroke="white" stroke-width="5"/>
<path d="M15.5955 6.0792C15.5955 6.0792 14.1719 6.72238 14.0075 8.03554C13.843 9.34869 12.6139 10.6621 11.4097 11.0441C10.2275 11.4195 9.42481 12.4977 8.07607 11.8333C6.37314 10.9944 3.58217 9.63577 2.38672 9.95757C2.65499 9.64178 3.18806 9.15361 3.33106 8.76471C3.54309 8.17449 3.65165 7.79953 3.71897 7.34009C3.85811 6.39204 5.04187 4.52462 6.63331 3.56779C7.19652 3.23012 8.07673 2.15329 9.03933 2.36527C10.063 2.5907 10.8467 1.91229 11.6706 2.37002C12.4946 2.82775 13.5079 4.097 13.885 4.76675C14.4585 5.78536 15.5955 6.0792 15.5955 6.0792Z" fill="#95001A"/>
<path d="M13.841 6.73438C13.841 6.73438 13.3443 10.7219 10.6069 10.4824C7.86954 10.2429 8.77514 9.14287 3.66357 8.97072C3.66357 8.97072 5.0299 7.68907 7.75849 7.39771C10.4871 7.10635 13.841 6.73438 13.841 6.73438Z" fill="#780016"/>
<path d="M11.8728 3.5495C12.6639 4.46416 13.2969 6.12512 15.4882 6.08953C15.4882 6.08953 13.5756 6.63773 12.208 5.62494C11.4314 5.04951 9.97496 4.78641 9.97496 4.78641L3.66353 8.97097L2.27319 9.96597C3.50981 8.92252 4.62916 7.92366 5.303 6.68254C5.96912 5.456 6.79967 5.32565 8.00483 4.58093C9.01075 3.95933 9.1517 3.5354 9.31572 3.56564C11.1764 3.9087 11.2861 2.87124 11.8728 3.5495Z" fill="#69001F"/>
<path d="M14.8813 6.17177C14.2141 6.43912 14.0452 6.71461 13.7564 6.96223C12.8688 7.72268 12.267 8.1564 11.5752 8.31505C10.297 8.60791 8.61214 8.3654 6.02593 8.48953C4.74343 8.55128 3.99634 8.82571 3.48975 9.09974C3.48975 9.09974 5.17878 7.1728 6.70804 6.37719C8.12495 5.64011 8.59827 4.90519 9.54822 4.66351C10.2126 4.49447 10.3671 4.60522 11.1273 4.47201C11.4611 4.41353 11.9096 4.91374 12.112 5.07322C12.7837 5.60256 13.7444 6.16791 14.8813 6.17177Z" fill="#36000A"/>
<path d="M6.88929 10.8583C7.86842 11.7018 9.41913 12.4991 11.0661 11.7753C12.7131 11.0515 13.6388 9.89487 14.0086 8.60938C14.0301 9.09068 13.9711 10.0844 13.1181 11.1021C12.8329 11.4426 12.4123 11.932 11.5989 12.298C10.4375 12.8207 9.3278 12.707 9.0806 12.677C8.75494 12.6372 8.42949 12.558 7.44864 12.0847C5.4893 11.1392 5.04144 10.6124 3.66503 10.2297C3.20903 10.1041 2.74354 10.0159 2.27319 9.96605L2.85741 9.54798C2.85741 9.54798 5.91037 10.0147 6.88929 10.8583Z" fill="#69001F"/>
<path d="M15.4881 6.08887C15.4881 6.08887 14.1906 6.83603 13.02 8.20793C13.02 8.20793 13.7093 6.39674 14.5932 6.16133C14.5924 6.16133 15.3031 6.13432 15.4881 6.08887Z" fill="#810716"/>
<path d="M11.6953 2.01103C12.2626 2.30967 12.5575 2.42181 12.9463 2.98099C13.2313 3.39097 13.6088 4.18653 13.9218 4.7031C14.4646 5.59885 14.8983 5.66104 15.4817 6.08686C15.4817 6.08686 14.0269 5.96335 13.0153 3.94055C12.7512 3.41258 12.2565 2.71509 11.574 2.55625C11.2557 2.48216 10.8965 2.52529 10.5008 2.75755C9.72619 3.21219 9.31364 2.69118 8.75364 2.85427C8.17799 3.02192 8.1261 3.48387 7.18513 3.73471C4.11801 4.86285 4.80856 8.42586 2.27319 9.96587C2.27319 9.96608 3.04347 9.31087 3.39908 8.17225C3.97678 6.3226 4.5046 4.85807 6.08531 3.76768C6.71705 3.3319 7.21113 2.98341 8.32326 2.25803C8.73016 1.99264 9.57868 2.24536 10.1149 2.14733C11.2802 1.93425 11.1433 1.72046 11.6953 2.01103Z" fill="#B50018"/>
<path d="M10.4812 7.41749C10.4812 7.41749 7.13988 6.54216 4.45996 8.69595C4.45996 8.69595 9.44094 9.84785 8.58679 12.2793C6.84506 17.2378 11.2339 17.4084 14.9708 13.583C16.4546 12.0638 16.491 8.81958 14.039 6.60168C14.039 6.60168 12.0435 5.95983 10.4812 7.41749Z" fill="#F21B4E"/>
<path d="M15.8642 10.5475C15.494 11.2902 13.4973 14.1206 11.3405 14.327C8.62266 14.5869 10.5432 10.915 8.60122 9.96588C6.65924 9.01676 5.51245 8.87097 5.51245 8.87097C5.51245 8.87097 5.93245 8.19414 6.96111 7.53981C8.84327 7.17985 10.481 7.41739 10.481 7.41739C11.4201 6.54139 12.4885 6.38445 13.2022 6.41575C13.4565 6.44662 13.6653 6.52539 13.9346 6.57127C15.2891 7.79609 15.8915 9.22644 15.8642 10.5475Z" fill="#FE677E"/>
<path d="M15.756 12.192C15.7345 12.2491 15.7225 12.7677 15.021 13.5341C10.4015 17.9547 6.89104 16.922 8.45611 12.3248C9.28688 9.88539 4.3689 8.72585 4.3689 8.72585C6.86658 6.48587 10.4806 7.41729 10.4806 7.41729C10.4965 7.40249 10.5121 7.38834 10.528 7.37441C10.5284 7.37759 10.5291 7.38074 10.5299 7.38384C10.6801 7.47002 10.8257 7.56405 10.966 7.66556L10.9216 7.51141L10.5377 7.36648L10.5293 7.37398C10.5399 7.36335 10.9047 6.90463 11.5897 6.60849C12.2865 6.3073 13.4955 6.20239 14.0896 6.63774C12.9718 6.24491 11.5767 6.83952 11.3249 7.94277L11.3108 7.93719C12.3398 8.82993 12.9669 10.1129 12.81 11.3077C12.3201 10.0175 11.868 9.1275 10.9519 8.0624C10.432 7.89088 8.65935 7.35619 7.51214 7.60124C6.15524 7.89088 5.89883 8.91504 6.74461 9.48404C7.59039 10.053 8.67758 10.2466 8.88168 11.1951C9.08578 12.1436 8.51271 13.1515 8.43381 14.0541C8.3442 15.0795 8.66257 15.9641 9.71395 15.9836C11.4576 16.0153 14.3922 14.3413 15.756 12.192Z" fill="#B6044A"/>
<path d="M10.9663 7.66584C10.826 7.56434 10.6805 7.4703 10.5303 7.38412C10.5294 7.38103 10.5288 7.37787 10.5283 7.37469L10.5367 7.36719L10.9215 7.5119L10.9663 7.66584Z" fill="#D33886"/>
<path d="M14.5344 7.40379C14.5743 7.46189 14.9969 8.08598 14.7872 8.21269C14.5994 8.32653 13.8818 8.0534 13.6563 7.58216C13.5041 7.264 13.568 6.83822 13.7594 6.7784C13.992 6.70594 14.3833 7.18382 14.5344 7.40379Z" fill="#FFD6EE"/>
<path d="M10.9955 8.5757C11.7458 9.29971 12.046 10.1712 11.9354 10.2165C11.9098 10.227 11.7274 10.0377 11.3634 9.65903C10.8471 9.12197 10.7086 8.95732 10.5735 8.74057C10.5478 8.69897 10.2189 8.16599 10.3276 8.11068C10.4198 8.06372 10.7905 8.37781 10.9955 8.5757Z" fill="#FFD6EE"/>
<path d="M9.24945 14.9473C9.17891 15.0176 9.55538 15.3988 10.1175 15.4642C10.3733 15.4938 10.6799 15.4597 10.7019 15.4012C10.7127 15.3727 10.6591 15.3328 10.2058 15.1913C9.59526 15.0011 9.29061 14.9052 9.24945 14.9473Z" fill="#FFD6EE"/>
<path d="M9.06283 14.019C9.03753 14.1086 9.22963 14.197 9.30275 14.1655C9.34756 14.1459 9.35184 14.0797 9.33791 14.0388C9.32445 14.0047 9.29974 13.9762 9.26788 13.9581C9.23602 13.9399 9.19893 13.9332 9.16274 13.9391C9.11557 13.9489 9.07269 13.9841 9.06283 14.019Z" fill="#FFD6EE"/>
<path d="M9.23905 7.99636C9.21589 8.17623 8.67241 8.37755 8.22003 8.3709C7.78589 8.36447 7.33351 8.16466 7.37832 7.985C7.4212 7.81563 7.89501 7.68872 8.23204 7.66813C8.71893 7.63748 9.26306 7.80834 9.23905 7.99636Z" fill="#FFD6EE"/>
<path d="M12.6055 3.10007C12.8874 3.79101 12.5096 3.02998 12.1258 2.68638C11.7792 2.37619 11.2974 2.35765 11.3831 2.25906C11.3981 2.22816 11.6626 2.22726 11.8669 2.30131C12.1765 2.41354 12.4655 2.75688 12.6055 3.10007Z" fill="#F79B7F"/>
<path d="M7.0029 5.13534C7.07172 5.17393 7.98428 4.58244 8.40986 4.278C8.86432 4.00808 8.87164 3.79636 9.12488 3.68574C9.23942 3.63571 9.3348 3.59231 9.70655 3.60662C9.41857 3.51104 9.29235 3.49897 9.23587 3.26322C9.17739 3.01909 8.80689 2.27514 8.58199 2.30301C8.35709 2.33088 8.43025 3.10319 7.99875 3.83944C7.55004 4.60506 6.92078 5.08946 7.0029 5.13534Z" fill="#B50018"/>
<path d="M8.41967 3.67962C8.36446 3.93256 8.33761 4.05903 8.375 4.06957C8.47663 4.09792 8.90873 3.78852 8.89443 3.48841C8.8854 3.30046 8.70222 3.1371 8.59883 3.16345C8.57625 3.16947 8.52581 3.19281 8.41967 3.67962Z" fill="#F79B7F"/>
<path d="M4.69934 5.92352C4.33694 7.23834 4.8585 6.12124 5.2334 5.50445C5.61344 4.87921 6.57938 4.0995 5.88032 4.38022C5.4015 4.57249 4.79736 5.56788 4.69934 5.92352Z" fill="#F79B7F"/>
<path d="M9.75171 3.59288C10.6608 3.74322 11.2245 3.30688 11.6437 3.41612C11.9251 3.48944 12.058 3.90947 12.3567 4.16916C11.7531 3.55363 11.801 2.65493 11.4386 2.49399C11.0016 2.41901 11.6462 2.87737 11.0764 3.21602C10.807 3.49385 10.1243 3.58487 9.75171 3.59288Z" fill="#B50018"/>
<path d="M10.9549 3.09338C10.7903 3.2411 10.3822 3.44 10.4029 3.46599C10.4591 3.53642 11.1917 3.29384 11.3317 3.0787C11.5175 2.82456 11.3814 2.53713 11.2919 2.52012C11.0919 2.48213 11.2717 2.80901 10.9549 3.09338Z" fill="#F79B7F"/>
<path d="M8.52758 2.35557C8.48439 2.46332 8.97229 2.75216 9.33096 2.66264C9.47054 2.62782 9.66389 2.47984 9.6618 2.40213C9.65881 2.29632 9.20239 2.28157 8.99138 2.28245C8.84357 2.28307 8.56136 2.27158 8.52758 2.35557Z" fill="#F79B7F"/>
</g>
<defs>
<clipPath id="clip0_85_554">
<rect width="19" height="19" rx="9.5" fill="white"/>
</clipPath>
</defs>
</svg>
