<svg width="20" height="20" viewBox="0 0 20 20" fill="none" xmlns="http://www.w3.org/2000/svg">
<path d="M13.3333 2.5C11.0702 2.5 9.23358 4.32864 9.18455 6.5804C7.18362 6.34042 5.88064 5.59229 5.08136 4.85514C4.19497 4.03766 3.91437 3.31136 3.91437 3.31136C3.8734 3.20814 3.80568 3.1177 3.71816 3.04934C3.63064 2.98098 3.52649 2.93717 3.41643 2.92242C3.30636 2.90767 3.19435 2.9225 3.09192 2.9654C2.98949 3.0083 2.90034 3.07772 2.83364 3.1665C2.83364 3.1665 2.08331 4.16667 2.08331 5.625C2.08331 6.45874 2.34656 7.07565 2.6603 7.59847C2.64874 7.59306 2.57078 7.56592 2.57078 7.56592C2.47117 7.51618 2.36008 7.49396 2.249 7.50154C2.13792 7.50912 2.03088 7.54623 1.93895 7.60904C1.84702 7.67185 1.77353 7.75807 1.72609 7.8588C1.67865 7.95952 1.65897 8.07109 1.66909 8.18197C1.66909 8.18197 1.90965 9.94035 3.56281 11.2256L3.39028 11.2687C3.29663 11.2921 3.20967 11.3368 3.1362 11.3995C3.06274 11.4621 3.00478 11.5409 2.96686 11.6296C2.92895 11.7184 2.9121 11.8147 2.91765 11.9111C2.9232 12.0075 2.95099 12.1012 2.99884 12.1851C2.99884 12.1851 3.27917 12.6593 3.86635 13.1584C4.2145 13.4543 4.72593 13.7597 5.32876 14.0422C4.58843 14.3127 3.48449 14.5833 1.87498 14.5833C1.75488 14.5833 1.63731 14.6179 1.53635 14.683C1.43539 14.748 1.35531 14.8408 1.30569 14.9501C1.25607 15.0595 1.23901 15.1809 1.25655 15.2997C1.27409 15.4185 1.32549 15.5297 1.4046 15.6201C1.4046 15.6201 1.8822 16.1463 2.82632 16.604C3.77043 17.0618 5.22476 17.5 7.29165 17.5C10.9249 17.5 13.5353 15.7571 15.1644 13.5482C16.7935 11.3392 17.5 8.69213 17.5 6.66667C17.5 6.53814 17.492 6.41143 17.4804 6.28581C18.3601 5.43817 18.6902 4.80093 18.706 4.76969C18.7852 4.61094 18.7557 4.42029 18.6328 4.29362C18.5103 4.16654 18.3204 4.13075 18.1592 4.20492L18.0916 4.23584C18.0337 4.26251 17.9758 4.28934 17.9175 4.31559C18.087 4.04518 18.2209 3.7562 18.3138 3.45703C18.3654 3.29203 18.3097 3.11122 18.173 3.00456C18.0363 2.89789 17.8481 2.88647 17.7002 2.97689C17.1909 3.2864 16.7028 3.50308 16.1946 3.64827C15.4469 2.93895 14.4403 2.5 13.3333 2.5ZM13.3333 3.75C14.9513 3.75 16.25 5.04868 16.25 6.66667C16.25 8.3912 15.6023 10.8483 14.1585 12.806C12.7147 14.7637 10.5334 16.25 7.29165 16.25C5.72281 16.25 4.67923 15.9662 3.89728 15.6592C4.71637 15.532 5.42163 15.3622 5.92853 15.166C6.80756 14.8257 7.28188 14.4328 7.28188 14.4328C7.36889 14.3581 7.43367 14.2609 7.46916 14.1519C7.50465 14.0429 7.50946 13.9262 7.48308 13.8146C7.4567 13.7031 7.40013 13.6009 7.31958 13.5193C7.23902 13.4377 7.13758 13.3799 7.02635 13.3521C5.89188 13.0684 5.16428 12.6097 4.70783 12.2274L5.35968 12.0646C5.48859 12.0324 5.6039 11.96 5.68887 11.8579C5.77384 11.7557 5.82404 11.6292 5.83221 11.4966C5.84037 11.3639 5.80607 11.2322 5.73427 11.1204C5.66247 11.0086 5.55692 10.9226 5.43292 10.8748C4.08079 10.3548 3.51299 9.61932 3.22264 9.00309C3.57596 9.07624 3.90494 9.16667 4.37498 9.16667C4.51573 9.16655 4.65233 9.11893 4.76265 9.03152C4.87297 8.94411 4.95056 8.82202 4.98286 8.68502C5.01515 8.54803 5.00027 8.40414 4.9406 8.27665C4.88094 8.14917 4.78 8.04556 4.65412 7.98258C4.65412 7.98258 3.33331 7.375 3.33331 5.625C3.33331 5.31081 3.42033 5.11181 3.48387 4.87386C3.70186 5.16681 3.88152 5.44941 4.23338 5.77393C5.30616 6.76331 7.0793 7.77215 9.75828 7.91585C9.84305 7.92038 9.92785 7.90758 10.0075 7.87826C10.0872 7.84893 10.16 7.80369 10.2216 7.74528C10.2832 7.68688 10.3323 7.61653 10.3658 7.53855C10.3994 7.46056 10.4166 7.37656 10.4166 7.29167V6.66667C10.4166 5.04868 11.7153 3.75 13.3333 3.75Z" fill="white"/>
</svg>
