<svg width="47" height="47" viewBox="0 0 47 47" fill="none" xmlns="http://www.w3.org/2000/svg">
<path d="M28.3862 11.9646C28.3862 11.9646 25.9538 13.0636 25.6728 15.3073C25.3918 17.5511 23.2916 19.7952 21.234 20.448C19.214 21.0895 17.8425 22.9318 15.5379 21.7965C12.6282 20.3631 7.8593 18.0416 5.81665 18.5915C6.27504 18.0519 7.18589 17.2178 7.43022 16.5533C7.79252 15.5448 7.97801 14.9041 8.09304 14.119C8.33078 12.4991 10.3534 9.30831 13.0727 7.67338C14.0351 7.09642 15.5391 5.25647 17.1838 5.61867C18.933 6.00386 20.2721 4.84468 21.6799 5.62679C23.0877 6.4089 24.8191 8.57764 25.4635 9.72203C26.4434 11.4625 28.3862 11.9646 28.3862 11.9646Z" fill="#95001A"/>
<path d="M25.3885 13.0845C25.3885 13.0845 24.5398 19.8978 19.8625 19.4887C15.1852 19.0795 16.7326 17.1998 7.99854 16.9057C7.99854 16.9057 10.3332 14.7157 14.9954 14.2179C19.6577 13.7201 25.3885 13.0845 25.3885 13.0845Z" fill="#780016"/>
<path d="M22.0256 7.6417C23.3774 9.20457 24.459 12.0426 28.2032 11.9818C28.2032 11.9818 24.9352 12.9185 22.5984 11.188C21.2715 10.2047 18.7829 9.75519 18.7829 9.75519L7.99869 16.9053L5.62305 18.6054C7.73603 16.8225 9.64864 15.1157 10.8 12.9951C11.9382 10.8993 13.3573 10.6766 15.4166 9.40409C17.1354 8.34197 17.3762 7.61761 17.6565 7.66928C20.8357 8.25547 21.0233 6.48278 22.0256 7.6417Z" fill="#69001F"/>
<path d="M27.1662 12.1229C26.0262 12.5797 25.7375 13.0504 25.2441 13.4735C23.7275 14.7729 22.6992 15.514 21.5171 15.7851C19.333 16.2855 16.4542 15.8711 12.0352 16.0832C9.84381 16.1887 8.56728 16.6576 7.70166 17.1259C7.70166 17.1259 10.5877 13.8333 13.2007 12.4739C15.6218 11.2144 16.4305 9.95869 18.0537 9.54573C19.1889 9.2569 19.4529 9.44613 20.7518 9.21853C21.3221 9.1186 22.0886 9.9733 22.4344 10.2458C23.5821 11.1503 25.2236 12.1163 27.1662 12.1229Z" fill="#36000A"/>
<path d="M13.5105 20.1299C15.1835 21.571 17.8332 22.9334 20.6473 21.6967C23.4614 20.46 25.0432 18.4836 25.6752 16.2871C25.7118 17.1095 25.611 18.8074 24.1534 20.5464C23.6662 21.1281 22.9475 21.9645 21.5576 22.5898C19.5732 23.4829 17.6771 23.2887 17.2547 23.2375C16.6983 23.1693 16.1422 23.0341 14.4662 22.2253C11.1183 20.6098 10.3531 19.7097 8.00125 19.0558C7.2221 18.8412 6.42672 18.6905 5.62305 18.6052L6.62129 17.8909C6.62129 17.8909 11.8378 18.6884 13.5105 20.1299Z" fill="#69001F"/>
<path d="M28.2033 11.9814C28.2033 11.9814 25.9862 13.2581 23.9861 15.6022C23.9861 15.6022 25.1638 12.5075 26.6742 12.1053C26.6727 12.1053 27.8871 12.0591 28.2033 11.9814Z" fill="#810716"/>
<path d="M21.7224 5.0131C22.6917 5.52337 23.1956 5.71498 23.8599 6.67045C24.347 7.37097 24.9919 8.73032 25.5268 9.61298C26.4543 11.1435 27.1953 11.2498 28.1922 11.9774C28.1922 11.9774 25.7063 11.7663 23.9778 8.31003C23.5266 7.4079 22.6813 6.2161 21.5152 5.94471C20.9712 5.8181 20.3574 5.8918 19.6813 6.28865C18.3578 7.06549 17.6529 6.17525 16.6961 6.45392C15.7124 6.74038 15.6238 7.5297 14.016 7.9583C8.77524 9.88594 9.95518 15.974 5.62305 18.6054C5.62305 18.6057 6.93919 17.4862 7.54683 15.5407C8.53393 12.3802 9.4358 9.87778 12.1367 8.01465C13.2162 7.27003 14.0604 6.67458 15.9607 5.43514C16.6559 4.98167 18.1058 5.4135 19.0219 5.24598C21.0131 4.8819 20.7792 4.5166 21.7224 5.0131Z" fill="#B50018"/>
<path d="M19.6477 14.2506C19.6477 14.2506 13.9385 12.755 9.35938 16.4351C9.35938 16.4351 17.8702 18.4033 16.4108 22.5579C13.4347 31.0303 20.9339 31.3219 27.319 24.7855C29.8543 22.1897 29.9165 16.6464 25.7268 12.8567C25.7268 12.8567 22.3171 11.76 19.6477 14.2506Z" fill="#F21B4E"/>
<path d="M28.8456 19.5993C28.2129 20.8683 24.8013 25.7045 21.116 26.0573C16.4721 26.5013 19.7536 20.2272 16.4354 18.6055C13.1172 16.9837 11.1577 16.7346 11.1577 16.7346C11.1577 16.7346 11.8754 15.5781 13.633 14.4601C16.849 13.845 19.6474 14.2509 19.6474 14.2509C21.2519 12.7541 23.0775 12.4859 24.297 12.5394C24.7315 12.5922 25.0883 12.7268 25.5485 12.8052C27.8629 14.898 28.8921 17.342 28.8456 19.5993Z" fill="#FE677E"/>
<path d="M28.6607 22.4096C28.6241 22.507 28.6036 23.3932 27.405 24.7028C19.5117 32.2561 13.5134 30.4915 16.1876 22.6363C17.6071 18.4682 9.20386 16.487 9.20386 16.487C13.4716 12.6596 19.6468 14.2511 19.6468 14.2511C19.6739 14.2258 19.7007 14.2016 19.7278 14.1778C19.7285 14.1832 19.7296 14.1886 19.7311 14.1939C19.9877 14.3412 20.2365 14.5018 20.4762 14.6753L20.4004 14.4119L19.7443 14.1642L19.73 14.1771C19.7482 14.1589 20.3714 13.3751 21.542 12.8691C22.7326 12.3544 24.7982 12.1752 25.8135 12.9191C23.9034 12.2478 21.5197 13.2638 21.0894 15.1489L21.0653 15.1394C22.8236 16.6648 23.8952 18.8569 23.627 20.8985C22.7899 18.6939 22.0174 17.1733 20.452 15.3533C19.5637 15.0603 16.5349 14.1466 14.5746 14.5654C12.2561 15.0603 11.818 16.8102 13.2632 17.7825C14.7084 18.7547 16.566 19.0855 16.9148 20.7061C17.2635 22.3268 16.2843 24.0489 16.1495 25.5911C15.9964 27.3433 16.5404 28.8548 18.3368 28.8881C21.3162 28.9423 26.3305 26.082 28.6607 22.4096Z" fill="#B6044A"/>
<path d="M20.4769 14.6753C20.2372 14.5019 19.9885 14.3412 19.7318 14.194C19.7304 14.1887 19.7293 14.1833 19.7285 14.1779L19.7428 14.165L20.4004 14.4123L20.4769 14.6753Z" fill="#D33886"/>
<path d="M26.5735 14.2282C26.6417 14.3275 27.3637 15.3939 27.0054 15.6104C26.6845 15.8049 25.4584 15.3382 25.0731 14.533C24.813 13.9894 24.9221 13.2618 25.2493 13.1596C25.6467 13.0358 26.3153 13.8524 26.5735 14.2282Z" fill="#FFD6EE"/>
<path d="M20.5263 16.2299C21.8084 17.467 22.3213 18.9561 22.1323 19.0334C22.0887 19.0514 21.7769 18.7279 21.1549 18.081C20.2728 17.1633 20.0361 16.882 19.8054 16.5116C19.7614 16.4405 19.1994 15.5298 19.3852 15.4353C19.5427 15.3551 20.1761 15.8918 20.5263 16.2299Z" fill="#FFD6EE"/>
<path d="M17.5431 27.1163C17.4225 27.2365 18.0658 27.8878 19.0263 27.9995C19.4633 28.0501 19.9872 27.9918 20.0249 27.8918C20.0432 27.8431 19.9517 27.7749 19.1772 27.5332C18.1339 27.2082 17.6134 27.0445 17.5431 27.1163Z" fill="#FFD6EE"/>
<path d="M17.2244 25.5313C17.1811 25.6844 17.5094 25.8353 17.6343 25.7815C17.7108 25.7481 17.7182 25.6349 17.6944 25.565C17.6714 25.5067 17.6291 25.4581 17.5747 25.4271C17.5203 25.3961 17.4569 25.3846 17.3951 25.3946C17.3145 25.4115 17.2412 25.4716 17.2244 25.5313Z" fill="#FFD6EE"/>
<path d="M17.5255 15.2413C17.4859 15.5486 16.5572 15.8926 15.7843 15.8813C15.0425 15.8703 14.2695 15.5289 14.3461 15.2219C14.4193 14.9325 15.2289 14.7156 15.8048 14.6804C16.6367 14.6281 17.5665 14.92 17.5255 15.2413Z" fill="#FFD6EE"/>
<path d="M23.2772 6.87418C23.7588 8.05476 23.1133 6.75441 22.4575 6.16731C21.8654 5.63729 21.0421 5.60561 21.1885 5.43715C21.2143 5.38437 21.6661 5.38283 22.0152 5.50935C22.5443 5.70111 23.038 6.28777 23.2772 6.87418Z" fill="#F79B7F"/>
<path d="M13.7048 10.3516C13.8224 10.4175 15.3817 9.40686 16.1089 8.88668C16.8854 8.42546 16.8979 8.0637 17.3306 7.87469C17.5263 7.78921 17.6893 7.71504 18.3245 7.7395C17.8324 7.57618 17.6168 7.55555 17.5203 7.15274C17.4203 6.73561 16.7873 5.46442 16.403 5.51205C16.0187 5.55967 16.1437 6.87929 15.4064 8.13731C14.6397 9.44551 13.5645 10.2732 13.7048 10.3516Z" fill="#B50018"/>
<path d="M16.1257 7.86333C16.0314 8.29552 15.9855 8.51162 16.0494 8.52963C16.223 8.57808 16.9614 8.04941 16.9369 7.53661C16.9215 7.21546 16.6085 6.93633 16.4319 6.98135C16.3933 6.99164 16.3071 7.03152 16.1257 7.86333Z" fill="#F79B7F"/>
<path d="M9.76853 11.6972C9.14931 13.9438 10.0405 12.035 10.6811 10.9811C11.3304 9.91278 12.9809 8.58051 11.7864 9.06017C10.9683 9.3887 9.93601 11.0895 9.76853 11.6972Z" fill="#F79B7F"/>
<path d="M18.4014 7.71676C19.9547 7.97365 20.9179 7.22809 21.6342 7.41474C22.115 7.54002 22.3421 8.25771 22.8525 8.70144C21.8212 7.64969 21.903 6.11411 21.2837 5.83912C20.5371 5.71101 21.6384 6.49419 20.6648 7.07283C20.2046 7.54755 19.038 7.70307 18.4014 7.71676Z" fill="#B50018"/>
<path d="M20.457 6.86164C20.1757 7.11405 19.4785 7.45391 19.5137 7.49831C19.6099 7.61865 20.8616 7.20418 21.1009 6.83656C21.4183 6.40232 21.1858 5.91119 21.0328 5.88212C20.691 5.81721 20.9983 6.37576 20.457 6.86164Z" fill="#F79B7F"/>
<path d="M16.3098 5.60285C16.236 5.78696 17.0696 6.28049 17.6825 6.12753C17.921 6.06804 18.2514 5.8152 18.2478 5.68242C18.2427 5.50162 17.4628 5.47642 17.1022 5.47792C16.8497 5.47897 16.3675 5.45934 16.3098 5.60285Z" fill="#F79B7F"/>
<path d="M16.2371 28.7512L16.2566 28.7684L17.0057 29.4315V23.6571L21.0654 22.2793V35.4067L18.7322 36.1983L15.5488 32.9259L14.0304 31.3657V37.7937L9.16846 39.4433V26.3162L12.2899 25.2572L15.4891 28.0893L16.2371 28.7512Z" fill="#610300"/>
<path d="M25.8088 20.6696L28.106 19.8904L29.8274 19.3062V23.224L28.106 23.808L25.8088 24.5875L25.793 24.593V25.5323L25.8088 25.5268L28.106 24.7476V28.6651L25.8088 29.4447L25.793 29.4498V33.8022L21.8579 35.0913V22.0104L24.072 21.2591L25.793 20.6751L25.8088 20.6696Z" fill="#610300"/>
<path d="M30.6045 19.0425L34.5553 17.7022L38.5058 16.3618H38.5062L42.4567 15.021V18.9389L38.5062 20.2793H38.5058V29.4279L38.5062 29.4276V29.4741L34.5553 30.8215V21.62L30.6045 22.9604V19.0425Z" fill="#610300"/>
<path d="M9.18677 39.4353V26.3574L10.2491 27.3062V40.3838L9.18677 39.4353Z" fill="black"/>
<path d="M9.2046 26.3981L10.2303 27.3139V40.3424L9.2046 39.4266V26.3981ZM9.16797 26.3164V39.4434L10.267 40.4248V27.2978L9.16797 26.3164Z" fill="#231F20"/>
<path d="M9.2041 26.3232L12.2857 25.2773L13.3531 26.2309L10.2716 27.2768L9.2041 26.3232Z" fill="black"/>
<path d="M12.281 25.2986L13.3189 26.2239L10.2783 27.2563L9.24233 26.3309L12.2829 25.2986H12.281ZM12.2913 25.2568L9.16797 26.3177L10.267 27.2991L13.3885 26.2401L12.2895 25.2583L12.2913 25.2568Z" fill="#231F20"/>
<path d="M17.0239 29.4231V23.6978L18.0863 24.6465V30.3719L17.0239 29.4231Z" fill="black"/>
<path d="M17.042 23.7388L18.0677 24.6546V30.3309L17.042 29.4151V23.7388ZM17.0054 23.6567V29.4316L18.1044 30.413V24.6385L17.0054 23.6567Z" fill="#231F20"/>
<path d="M18.7441 36.1845L15.1357 32.4754L15.1438 32.3882L19.4537 36.8182L18.7441 36.1845Z" fill="black"/>
<path d="M15.1581 32.4296L19.0778 36.457L18.7584 36.1716L15.1555 32.4688L15.1592 32.4296H15.1581ZM15.1299 32.3472L15.1174 32.4823L18.7327 36.1984L19.8317 37.1798L15.1288 32.3472H15.1299Z" fill="black"/>
<path d="M21.8765 35.0827V22.0513L22.9388 23.0001V36.0315L21.8765 35.0827Z" fill="black"/>
<path d="M21.8943 22.0919L22.92 23.0078V35.9901L21.8943 35.0743V22.0919ZM21.8577 22.0103V35.0908L22.9566 36.0725V22.9916L21.8577 22.0103Z" fill="#231F20"/>
<path d="M25.8286 25.5393L28.1017 24.7686L29.1692 25.7217L26.8961 26.4929L25.8286 25.5393Z" fill="black"/>
<path d="M28.0975 24.7891L29.1339 25.7144L26.8993 26.472L25.8644 25.5485L28.099 24.7909L28.0975 24.7891ZM28.1074 24.7495L25.7944 25.5338L26.8934 26.5156L29.2064 25.7309L28.1074 24.7495Z" fill="black"/>
<path d="M35.6356 31.7798C35.5129 31.7241 34.9333 31.172 34.5732 30.8137V21.6606L35.6356 22.6094V31.7798Z" fill="black"/>
<path d="M34.5916 21.7021L35.6173 22.6179V31.7486C35.4708 31.6545 35.0044 31.2171 34.5916 30.8064V21.7021ZM34.5549 21.62V30.8211C34.5549 30.8211 35.5404 31.8029 35.6517 31.8029H35.6539V22.6014L34.5549 21.6196V21.62Z" fill="#231F20"/>
<path d="M30.6228 22.9523V19.0835L31.6852 20.0323V23.9011L30.6228 22.9523Z" fill="black"/>
<path d="M30.6409 19.1242L31.6666 20.04V23.86L30.6409 22.9442V19.1242ZM30.6042 19.0425V22.9622L31.7032 23.9436V20.0239L30.6042 19.0425Z" fill="#231F20"/>
<path d="M30.6399 19.0495L42.4522 15.0415L43.52 15.9947L31.7074 20.0031L30.6399 19.0495Z" fill="black"/>
<path d="M42.448 15.0624L43.4844 15.9874L31.7117 19.9804L30.6757 19.0572L42.448 15.0642V15.0624ZM42.4564 15.0228L30.6042 19.0426L31.7032 20.024L43.5554 16.0024L42.4564 15.021V15.0228Z" fill="#231F20"/>
<path d="M17.0413 23.6645L21.061 22.3003L22.1288 23.2535L18.1087 24.6177L17.0413 23.6645Z" fill="black"/>
<path d="M21.0566 22.3209L22.093 23.2463L18.1128 24.5962L17.0768 23.6709L21.0566 22.3202V22.3209ZM21.065 22.2788L17.0054 23.6562L18.1044 24.638L22.164 23.2602L21.065 22.2788Z" fill="#231F20"/>
<path d="M21.8938 22.0178L29.8234 19.3271L30.8912 20.2803L22.9613 22.971L21.8938 22.0178Z" fill="black"/>
<path d="M29.8187 19.3475L30.8551 20.2733L22.9651 22.95L21.9276 22.0247L29.8173 19.3475H29.8187ZM29.8257 19.3062L21.8577 22.0104L22.9567 22.9918L30.9262 20.2875L29.8272 19.3062H29.8257Z" fill="#231F20"/>
<path d="M17.336 29.7327L17.3554 29.7499L18.1046 30.413V24.6385L22.1642 23.2607V36.3882L19.8311 37.1798L16.6477 33.9077L15.1293 32.3472V38.7752L10.2673 40.4247V27.2977L13.3888 26.2386L16.588 29.0707L17.336 29.7327Z" fill="white"/>
<path d="M26.9081 21.6511L29.2054 20.8719L30.9268 20.2876V24.2055L29.2054 24.7894L26.9081 25.5693L26.8924 25.5745V26.5137L26.9081 26.5086L29.2054 25.729V29.6466L26.9081 30.4261L26.8924 30.4312V34.7836L22.9573 36.0727V22.9918L25.1714 22.2409L26.8924 21.6566L26.9081 21.6511Z" fill="white"/>
<path d="M31.7036 20.024L35.6545 18.684L39.605 17.3432H39.6053L43.5558 16.0024V19.9203L39.6053 21.2607H39.605V30.4094L39.6053 30.4091V30.4556L35.6545 31.803V22.6015L31.7036 23.9419V20.024Z" fill="white"/>
</svg>
