<svg width="17" height="16" viewBox="0 0 17 16" fill="none" xmlns="http://www.w3.org/2000/svg">
<path fill-rule="evenodd" clip-rule="evenodd" d="M16.6337 0.445446C17.108 0.987579 17.0531 1.81162 16.511 2.28598L9.98067 8L16.511 13.714C17.0531 14.1884 17.108 15.0124 16.6337 15.5546C16.1593 16.0967 15.3353 16.1516 14.7931 15.6773L7.14098 8.98162C6.85792 8.73394 6.69556 8.37612 6.69556 8C6.69556 7.62388 6.85792 7.26606 7.14098 7.01838L14.7931 0.322743C15.3353 -0.151624 16.1593 -0.0966879 16.6337 0.445446Z" fill="white"/>
<path fill-rule="evenodd" clip-rule="evenodd" d="M0.322864 0.445446C-0.151504 0.987579 -0.0965672 1.81162 0.445566 2.28598L6.97587 8L0.445566 13.714C-0.0965672 14.1884 -0.151504 15.0124 0.322864 15.5546C0.797231 16.0967 1.62127 16.1516 2.1634 15.6773L9.81556 8.98162C10.0986 8.73394 10.261 8.37612 10.261 8C10.261 7.62388 10.0986 7.26606 9.81556 7.01838L2.1634 0.322743C1.62127 -0.151624 0.797231 -0.0966879 0.322864 0.445446Z" fill="white"/>
</svg>
