<svg width="20" height="20" viewBox="0 0 20 20" fill="none" xmlns="http://www.w3.org/2000/svg">
<path d="M8.54167 2.5C5.21235 2.5 2.5 5.21235 2.5 8.54167C2.5 11.871 5.21235 14.5833 8.54167 14.5833C9.98182 14.5833 11.3057 14.0746 12.3454 13.2292L16.4331 17.3169C16.4907 17.3769 16.5597 17.4248 16.636 17.4578C16.7123 17.4907 16.7945 17.5082 16.8776 17.509C16.9608 17.5099 17.0433 17.4941 17.1202 17.4627C17.1972 17.4312 17.2672 17.3848 17.326 17.326C17.3848 17.2672 17.4312 17.1972 17.4627 17.1202C17.4941 17.0433 17.5099 16.9608 17.509 16.8776C17.5082 16.7945 17.4907 16.7123 17.4578 16.636C17.4248 16.5597 17.3769 16.4907 17.3169 16.4331L13.2292 12.3454C14.0746 11.3057 14.5833 9.98182 14.5833 8.54167C14.5833 5.21235 11.871 2.5 8.54167 2.5ZM8.54167 3.75C11.1954 3.75 13.3333 5.8879 13.3333 8.54167C13.3333 9.83442 12.8234 11.0024 11.9963 11.8628C11.9453 11.9003 11.9003 11.9453 11.8628 11.9963C11.0024 12.8234 9.83442 13.3333 8.54167 13.3333C5.8879 13.3333 3.75 11.1954 3.75 8.54167C3.75 5.8879 5.8879 3.75 8.54167 3.75Z" fill="white"/>
</svg>
