<svg width="20" height="20" viewBox="0 0 20 20" fill="none" xmlns="http://www.w3.org/2000/svg">
<path d="M14.9999 2.0835C13.3965 2.0835 12.0833 3.39674 12.0833 5.00016C12.0833 5.24423 12.166 5.46244 12.2232 5.68945L7.22729 8.18864C6.69122 7.53097 5.90888 7.0835 4.99992 7.0835C3.39649 7.0835 2.08325 8.39674 2.08325 10.0002C2.08325 11.6036 3.39649 12.9168 4.99992 12.9168C5.90888 12.9168 6.69122 12.4694 7.22729 11.8117L12.2232 14.3109C12.166 14.5379 12.0833 14.7561 12.0833 15.0002C12.0833 16.6036 13.3965 17.9168 14.9999 17.9168C16.6033 17.9168 17.9166 16.6036 17.9166 15.0002C17.9166 13.3967 16.6033 12.0835 14.9999 12.0835C14.091 12.0835 13.3086 12.531 12.7725 13.1886L7.77661 10.6895C7.83386 10.4624 7.91658 10.2442 7.91658 10.0002C7.91658 9.75609 7.83386 9.53789 7.77661 9.31087L12.7725 6.81169C13.3086 7.46936 14.091 7.91683 14.9999 7.91683C16.6033 7.91683 17.9166 6.60359 17.9166 5.00016C17.9166 3.39674 16.6033 2.0835 14.9999 2.0835ZM14.9999 3.3335C15.9278 3.3335 16.6666 4.07228 16.6666 5.00016C16.6666 5.92804 15.9278 6.66683 14.9999 6.66683C14.072 6.66683 13.3333 5.92804 13.3333 5.00016C13.3333 4.07228 14.072 3.3335 14.9999 3.3335ZM4.99992 8.3335C5.9278 8.3335 6.66658 9.07228 6.66658 10.0002C6.66658 10.928 5.9278 11.6668 4.99992 11.6668C4.07204 11.6668 3.33325 10.928 3.33325 10.0002C3.33325 9.07228 4.07204 8.3335 4.99992 8.3335ZM14.9999 13.3335C15.9278 13.3335 16.6666 14.0723 16.6666 15.0002C16.6666 15.928 15.9278 16.6668 14.9999 16.6668C14.072 16.6668 13.3333 15.928 13.3333 15.0002C13.3333 14.0723 14.072 13.3335 14.9999 13.3335Z" fill="white"/>
</svg>
