<svg width="20" height="20" viewBox="0 0 20 20" fill="none" xmlns="http://www.w3.org/2000/svg">
<path d="M17.2794 2.07789C17.2568 2.07857 17.2342 2.08047 17.2118 2.08359H11.4583C11.3754 2.08242 11.2932 2.09772 11.2163 2.1286C11.1395 2.15949 11.0695 2.20534 11.0106 2.26349C10.9516 2.32164 10.9047 2.39094 10.8728 2.46735C10.8408 2.54376 10.8243 2.62576 10.8243 2.70859C10.8243 2.79142 10.8408 2.87342 10.8728 2.94983C10.9047 3.02624 10.9516 3.09554 11.0106 3.15369C11.0695 3.21184 11.1395 3.25769 11.2163 3.28858C11.2932 3.31946 11.3754 3.33476 11.4583 3.33359H15.7828L9.34969 9.7667C9.28971 9.82429 9.24182 9.89327 9.20883 9.9696C9.17584 10.0459 9.15841 10.1281 9.15757 10.2112C9.15672 10.2944 9.17248 10.3769 9.20391 10.4538C9.23534 10.5308 9.28181 10.6008 9.34061 10.6596C9.39941 10.7184 9.46935 10.7648 9.54634 10.7963C9.62332 10.8277 9.7058 10.8435 9.78895 10.8426C9.8721 10.8418 9.95425 10.8243 10.0306 10.7913C10.1069 10.7584 10.1759 10.7105 10.2335 10.6505L16.6666 4.21738V8.54192C16.6654 8.62474 16.6807 8.70697 16.7116 8.78383C16.7425 8.86068 16.7883 8.93063 16.8465 8.98961C16.9046 9.04859 16.9739 9.09543 17.0503 9.1274C17.1268 9.15936 17.2088 9.17583 17.2916 9.17583C17.3744 9.17583 17.4564 9.15936 17.5328 9.1274C17.6092 9.09543 17.6785 9.04859 17.7367 8.98961C17.7948 8.93063 17.8407 8.86068 17.8716 8.78383C17.9025 8.70697 17.9178 8.62474 17.9166 8.54192V2.78753C17.9289 2.69761 17.9215 2.60608 17.8949 2.51931C17.8682 2.43255 17.823 2.35262 17.7624 2.28509C17.7017 2.21755 17.6271 2.16404 17.5437 2.12826C17.4603 2.09248 17.3701 2.07529 17.2794 2.07789ZM5.20825 3.33359C3.48971 3.33359 2.08325 4.74005 2.08325 6.45859V14.7919C2.08325 16.5105 3.48971 17.9169 5.20825 17.9169H13.5416C15.2601 17.9169 16.6666 16.5105 16.6666 14.7919V10.6253C16.6678 10.5424 16.6525 10.4602 16.6216 10.3834C16.5907 10.3065 16.5448 10.2366 16.4867 10.1776C16.4285 10.1186 16.3592 10.0718 16.2828 10.0398C16.2064 10.0078 16.1244 9.99136 16.0416 9.99136C15.9588 9.99136 15.8768 10.0078 15.8003 10.0398C15.7239 10.0718 15.6546 10.1186 15.5965 10.1776C15.5383 10.2366 15.4925 10.3065 15.4616 10.3834C15.4307 10.4602 15.4154 10.5424 15.4166 10.6253V14.7919C15.4166 15.835 14.5847 16.6669 13.5416 16.6669H5.20825C4.16513 16.6669 3.33325 15.835 3.33325 14.7919V6.45859C3.33325 5.41547 4.16513 4.58359 5.20825 4.58359H9.37492C9.45774 4.58476 9.53996 4.56946 9.61682 4.53858C9.69368 4.50769 9.76363 4.46184 9.82261 4.40369C9.88159 4.34554 9.92842 4.27624 9.96039 4.19983C9.99236 4.12342 10.0088 4.04142 10.0088 3.95859C10.0088 3.87576 9.99236 3.79376 9.96039 3.71735C9.92842 3.64094 9.88159 3.57164 9.82261 3.51349C9.76363 3.45534 9.69368 3.40949 9.61682 3.3786C9.53996 3.34772 9.45774 3.33242 9.37492 3.33359H5.20825Z" fill="white"/>
</svg>
